/* XPM */
static char * bottom_right_active_xpm[] = {
"25 25 6 1",
" 	c None",
".	c #FEFFFC",
"+	c #6B8AB9",
"@	c #6789BB",
"#	c #000100",
"$	c #6689BD",
"                     .+@#",
"                     .$$#",
"                     .$$#",
"                     .+@#",
"                     .$$#",
"                     .$$#",
"                     .+@#",
"                     .$$#",
"                     .$$#",
"                     .+@#",
"                     .$$#",
"                     .$$#",
"                     .+@#",
"                     .$$#",
"                     .$$#",
"                     .$$#",
"                     .+@#",
"                     .$$#",
"                     .$$#",
"                     .+@#",
"                     .$$#",
"......................$$#",
"$++$$+$$+$+$$+$$++$$+$+$#",
"$$@$$@$$@$@$$@$$@@$$@$@$#",
"#########################"};
