/* XPM */
static char * bottom_active_xpm[] = {
"1 4 4 1",
" 	c None",
".	c #FEFFFC",
"+	c #6689BD",
"@	c #000100",
".",
"+",
"+",
"@"};
