/* XPM */
static char * bottom_left_inactive_xpm[] = {
"25 25 4 1",
" 	c None",
".	c #FEFFFC",
"+	c #A2A2A2",
"@	c #000100",
".++@                     ",
".++@                     ",
".++@                     ",
".++@                     ",
".++@                     ",
".++@                     ",
".++@                     ",
".++@                     ",
".++@                     ",
".++@                     ",
".++@                     ",
".++@                     ",
".++@                     ",
".++@                     ",
".++@                     ",
".++@                     ",
".++@                     ",
".++@                     ",
".++@                     ",
".++@                     ",
".++@                     ",
".++@.....................",
".++++++++++++++++++++++++",
".++++++++++++++++++++++++",
".@@@@@@@@@@@@@@@@@@@@@@@@"};
