/* XPM */
static char * close_inactive_xpm[] = {
"14 16 4 1",
" 	c None",
".	c #FEFFFC",
"+	c #A2A2A2",
"@	c #000100",
"..............",
"++++++++++++++",
"++++++++++++++",
"++++++++++++++",
"++++++++++++++",
"+++@@@@@++++++",
"+++@...@++++++",
"+++@...@++++++",
"+++@...@++++++",
"+++@...@++++++",
"+++@...@++++++",
"+++@@@@@++++++",
"++++++++++++++",
"++++++++++++++",
"++++++++++++++",
"@@@@@@@@@@@@@@"};
