/* XPM */
static char * hide_inactive_xpm[] = {
"23 16 4 1",
" 	c #FEFFFC",
".	c #A2A2A2",
"+	c #000100",
"@	c #ACAAAE",
"                       ",
" .....................+",
" .....................+",
" ...+++++++++++.......+",
" ...+@@@@@@@@@+.......+",
" ...+@@@@@@@@@+.......+",
" ...+@@@+++++++++++...+",
" ...+@@@+         +...+",
" ...+@@@+         +...+",
" ...+++++         +...+",
" .......+         +...+",
" .......+         +...+",
" .......+++++++++++...+",
" .....................+",
" .....................+",
"+++++++++++++++++++++++"};
