/* XPM */
static char * maximize_active_xpm[] = {
"23 16 4 1",
" 	c None",
".	c #FEFFFC",
"+	c #6689BD",
"@	c #000100",
".......................",
".+++++++++++++++++++++@",
".+++++++++++++++++++++@",
".++++@@@@@@@@@@@@@++++@",
".++++@@...@@+++++@++++@",
".++++@@...@@+++++@++++@",
".++++@@...@@+++++@++++@",
".++++@@...@@+++++@++++@",
".++++@@@@@@@+++++@++++@",
".++++@+++++++++++@++++@",
".++++@+++++++++++@++++@",
".++++@+++++++++++@++++@",
".++++@@@@@@@@@@@@@++++@",
".+++++++++++++++++++++@",
".+++++++++++++++++++++@",
"@@@@@@@@@@@@@@@@@@@@@@@"};
