/* XPM */
static char * right_inactive_xpm[] = {
"4 1 4 1",
" 	c None",
".	c #FEFFFC",
"+	c #A2A2A2",
"@	c #000100",
".++@"};
