/* XPM */
static char * title_2_active_xpm[] = {
"12 16 4 1",
" 	c None",
".	c #FEFFFC",
"+	c #000100",
"@	c #6689BD",
"............",
"+.@@@@@@@@@@",
"+.@@@@@@@@@@",
"+.@@@@@@@@@@",
"+.@@@@@@@@@@",
"+.@@@@@@@@@@",
"+.@@@@@@@@@@",
"+.@@@@@@@@@@",
"+.@@@@@@@@@@",
"+.@@@@@@@@@@",
"+.@@@@@@@@@@",
"+.@@@@@@@@@@",
"+.@@@@@@@@@@",
"+.@@@@@@@@@@",
"+.@@@@@@@@@@",
"++++++++++++"};
