/* XPM */
static char * title_2_inactive_xpm[] = {
"12 16 4 1",
" 	c None",
".	c #FEFFFC",
"+	c #000100",
"@	c #A2A2A2",
"............",
"+.@@@@@@@@@@",
"+.@@@@@@@@@@",
"+.@@@@@@@@@@",
"+.@@@@@@@@@@",
"+.@@@@@@@@@@",
"+.@@@@@@@@@@",
"+.@@@@@@@@@@",
"+.@@@@@@@@@@",
"+.@@@@@@@@@@",
"+.@@@@@@@@@@",
"+.@@@@@@@@@@",
"+.@@@@@@@@@@",
"+.@@@@@@@@@@",
"+.@@@@@@@@@@",
"++++++++++++"};
