/* XPM */
static char * title_5_inactive_xpm[] = {
"1 16 4 1",
" 	c None",
".	c #FEFFFC",
"+	c #A2A2A2",
"@	c #000100",
".",
"+",
"+",
"+",
"+",
"+",
"+",
"+",
"+",
"+",
"+",
"+",
"+",
"+",
"+",
"@"};
