/* XPM */
static char * top_right_active_xpm[] = {
"6 16 4 1",
" 	c None",
".	c #FEFFFC",
"+	c #6689BD",
"@	c #000100",
"......",
"+@.++@",
"+@.++@",
"+@.++@",
"+@.++@",
"+@.++@",
"+@.++@",
"+@.++@",
"+@.++@",
"+@.++@",
"+@.++@",
"+@.++@",
"+@.++@",
"+@.++@",
"+@.++@",
"+@.++@"};
