/* XPM */
static char * top_right_inactive_xpm[] = {
"6 16 4 1",
" 	c None",
".	c #FEFFFC",
"+	c #A2A2A2",
"@	c #000100",
"......",
"+@.++@",
"+@.++@",
"+@.++@",
"+@.++@",
"+@.++@",
"+@.++@",
"+@.++@",
"+@.++@",
"+@.++@",
"+@.++@",
"+@.++@",
"+@.++@",
"+@.++@",
"+@.++@",
"+@.++@"};
