/* XPM */
static char * top_left_active_xpm[] = {
"4 16 4 1",
" 	c None",
".	c #FEFFFC",
"+	c #6689BD",
"@	c #000100",
"....",
".+++",
".+++",
".+++",
".+++",
".+++",
".+++",
".+++",
".+++",
".+++",
".+++",
".+++",
".+++",
".+++",
".+++",
".@@@"};
