/* XPM */
static char *bottom_left_active[] = {
/* columns rows colors chars-per-pixel */
"38 38 66 1 ",
"  c black",
". c #000100",
"X c #010202",
"o c #080907",
"O c #1F2020",
"+ c #2E3F57",
"@ c #304158",
"# c #304159",
"$ c #31445F",
"% c #344661",
"& c #364862",
"* c #364863",
"= c #364964",
"- c #4A5C75",
"; c #4E6990",
": c #6688BB",
"> c #6689BB",
", c #6789BB",
"< c #6588BC",
"1 c #6588BD",
"2 c #6688BC",
"3 c #6689BC",
"4 c #6789BC",
"5 c #6689BD",
"6 c #6789BD",
"7 c #678ABC",
"8 c #678ABD",
"9 c #6589BE",
"0 c #668ABE",
"q c #678ABE",
"w c #668ABF",
"e c #678ABF",
"r c #6889BB",
"t c #6989BB",
"y c #698ABA",
"u c #6B8BBA",
"i c #6A8ABB",
"p c #6889BC",
"a c #688ABC",
"s c #698ABC",
"d c #688ABD",
"f c #6A8CBF",
"g c #6C8CBE",
"h c #868785",
"j c #9EA6AF",
"k c #BEBFBC",
"l c #95A7C1",
"z c #AFC1DA",
"x c #AEC1DB",
"c c #AFC1DB",
"v c #B0C1D9",
"b c #B1C1D9",
"n c #B1C2D9",
"m c #B0C1DA",
"M c #B2C5DF",
"N c #B7C8DE",
"B c #B7C8DF",
"V c #B9C8DC",
"C c #B8C8DD",
"Z c #B9C8DD",
"A c #B8C8DE",
"S c #FDFEFB",
"D c #FFFFFD",
"F c #FFFFFE",
"G c white",
"H c None",
/* pixels */
"DVua&XHHHHHHHHHHHHHHHHHHHHHHHHHHHHHHHH",
"DCsq*XHHHHHHHHHHHHHHHHHHHHHHHHHHHHHHHH",
"DB0w*XHHHHHHHHHHHHHHHHHHHHHHHHHHHHHHHH",
"DB0w*XHHHHHHHHHHHHHHHHHHHHHHHHHHHHHHHH",
"DAsq*XHHHHHHHHHHHHHHHHHHHHHHHHHHHHHHHH",
"DZi7&XHHHHHHHHHHHHHHHHHHHHHHHHHHHHHHHH",
"DNd0*XHHHHHHHHHHHHHHHHHHHHHHHHHHHHHHHH",
"DB0w*XHHHHHHHHHHHHHHHHHHHHHHHHHHHHHHHH",
"DNqw*XHHHHHHHHHHHHHHHHHHHHHHHHHHHHHHHH",
"DZi8&XHHHHHHHHHHHHHHHHHHHHHHHHHHHHHHHH",
"DCs8&XHHHHHHHHHHHHHHHHHHHHHHHHHHHHHHHH",
"DBqw*XHHHHHHHHHHHHHHHHHHHHHHHHHHHHHHHH",
"DB0w*XHHHHHHHHHHHHHHHHHHHHHHHHHHHHHHHH",
"DAdq*XHHHHHHHHHHHHHHHHHHHHHHHHHHHHHHHH",
"DZid&XHHHHHHHHHHHHHHHHHHHHHHHHHHHHHHHH",
"DNd0*XHHHHHHHHHHHHHHHHHHHHHHHHHHHHHHHH",
"DB0w*XHHHHHHHHHHHHHHHHHHHHHHHHHHHHHHHH",
"DNqw*XHHHHHHHHHHHHHHHHHHHHHHHHHHHHHHHH",
"DCi8&XHHHHHHHHHHHHHHHHHHHHHHHHHHHHHHHH",
"DCi8&XHHHHHHHHHHHHHHHHHHHHHHHHHHHHHHHH",
"DNqw*XHHHHHHHHHHHHHHHHHHHHHHHHHHHHHHHH",
"DB0w*XHHHHHHHHHHHHHHHHHHHHHHHHHHHHHHHH",
"DNd0*XHHHHHHHHHHHHHHHHHHHHHHHHHHHHHHHH",
"DZid&XHHHHHHHHHHHHHHHHHHHHHHHHHHHHHHHH",
"DAdq*XHHHHHHHHHHHHHHHHHHHHHHHHHHHHHHHH",
"DB0w*XHHHHHHHHHHHHHHHHHHHHHHHHHHHHHHHH",
"DB0w*XHHHHHHHHHHHHHHHHHHHHHHHHHHHHHHHH",
"DN8q&XHHHHHHHHHHHHHHHHHHHHHHHHHHHHHHHH",
"DN78&XHHHHHHHHHHHHHHHHHHHHHHHHHHHHHHHH",
"DBqw*XHHHHHHHHHHHHHHHHHHHHHHHHHHHHHHHH",
"DB0w=.HHHHHHHHHHHHHHHHHHHHHHHHHHHHHHHH",
"DNq0%oHHHHHHHHHHHHHHHHHHHHHHHHHHHHHHHH",
"DN78$OkGSSSSSSSSSSSSSSSSSSSSSSSSSSSSSS",
"DN61;-lMcvnbzxxvvxxzbzxxvvcxzbzxxmbcxx",
"DBe9fgq99pyt599rr996t699pr995t4994r599",
"DN4<q83212:,211>>112,211:>112,211:,111",
"Fj@+##@@###@###@@##@@@##@@###@@##@@###",
"Fh                                    "
};
