/* XPM */
static char * bottom_right_active_xpm[] = {
"38 38 32 1",
" 	c None",
".	c #FDFEFB",
"+	c #B1C2D9",
"@	c #698ABA",
"#	c #6789BA",
"$	c #304158",
"%	c #000000",
"&	c #B0C1DA",
"*	c #6789BC",
"=	c #6688BC",
"-	c #AEC1DB",
";	c #6589BE",
">	c #6588BD",
",	c #304159",
"'	c #AFC1DA",
")	c #B1C1D9",
"!	c #6989BB",
"~	c #6789BB",
"{	c #6689BD",
"]	c #6588BC",
"^	c #B0C1D9",
"/	c #6889BB",
"(	c #6689BB",
"_	c #6889BC",
":	c #6688BB",
"<	c #6789BD",
"[	c #698ABB",
"}	c #6689BC",
"|	c #34455E",
"1	c #314259",
"2	c #171F29",
"3	c #000100",
"                                .+@#$%",
"                                .&*=$%",
"                                .-;>,%",
"                                .-;>,%",
"                                .'*=$%",
"                                .)!~$%",
"                                .'{],%",
"                                .-;>,%",
"                                .-;],%",
"                                .^/($%",
"                                .&_:$%",
"                                .-;>,%",
"                                .-;>,%",
"                                .'<=$%",
"                                .)!~$%",
"                                .'{=,%",
"                                .-;>,%",
"                                .-;],%",
"                                .^/:$%",
"                                .^/:$%",
"                                .-;],%",
"                                .&_:$%",
"                                .-;>,%",
"                                .-;>,%",
"                                .'<=$%",
"                                .)!~$%",
"                                .'{=,%",
"                                .-;>,%",
"                                .-;],%",
"                                .^/:$%",
"                                .^/:$%",
"                                .^/],%",
".................................-;>,%",
"-'++&--')'--+&--')'--^&-^^--')'--^{=,%",
";<[@*;;*!{;;@*;;*!{;;/_;//;;{!<;;_!~$%",
">]}~:>>=~=>]~:>>=~=>](:]::>>=~=>>:<=$%",
",,,$$,,$$,,,$$,,$$,,,$$,$$,,$$$,,$|12%",
"%%%%%%%%%%%%%%%%%%%%%%%%%%%%%%%%%%%%%3"};
