/* XPM */
static char * bottom_right_inactive_xpm[] = {
"38 38 16 1",
" 	c None",
".	c #FDFEFB",
"+	c #CECECD",
"@	c #A2A2A2",
"#	c #A1A1A1",
"$	c #4C4D4C",
"%	c #000000",
"&	c #FFFFFD",
"*	c #CECFCD",
"=	c #FBFCF9",
"-	c #CCCDCC",
";	c #525252",
">	c #515251",
",	c #4D4D4D",
"'	c #232423",
")	c #000100",
"                                .+@#$%",
"                                .+@#$%",
"                                .+@#$%",
"                                .+@#$%",
"                                .+@#$%",
"                                .+@#$%",
"                                .+@#$%",
"                                .+@#$%",
"                                .+@#$%",
"                                .+@#$%",
"                                .+@#$%",
"                                .+@#$%",
"                                .+@#$%",
"                                .+@#$%",
"                                .+@#$%",
"                                .+@#$%",
"                                .+@#$%",
"                                .+@#$%",
"                                .+@#$%",
"                                .+@#$%",
"                                .+@#$%",
"                                .+@#$%",
"                                .+@#$%",
"                                .+@#$%",
"                                .+@#$%",
"                                .+@#$%",
"                                .+@#$%",
"                                .+@#$%",
"                                .+@#$%",
"                                .+@#$%",
"                                .+@#$%",
"                                &*@#$%",
"................................=-@#$%",
"++++++++++++++++++++++++++++++++++@#;%",
"@@@@@@@@@@@@@@@@@@@@@@@@@@@@@@@@@@@@>%",
"####################################,%",
"$$$$$$$$$$$$$$$$$$$$$$$$$$$$$$$$$$$$'%",
"%%%%%%%%%%%%%%%%%%%%%%%%%%%%%%%%%%%%%)"};
