/* XPM */
static char *bottom_left_inactive[] = {
/* columns rows colors chars-per-pixel */
"38 38 32 1 ",
"  c black",
". c #000100",
"X c #010201",
"o c #080907",
"O c #1F201F",
"+ c #4A4B4A",
"@ c #4C4C4C",
"# c #4C4D4C",
"$ c #515151",
"% c #535353",
"& c #555655",
"* c #686968",
"= c #7C7C7C",
"- c #868785",
"; c #A1A1A1",
": c #A1A1A2",
"> c #A2A2A2",
", c #A3A3A3",
"< c #A4A4A4",
"1 c #A5A5A5",
"2 c #AAABA9",
"3 c #B4B4B3",
"4 c #BEBFBD",
"5 c #CECECD",
"6 c #D2D2D1",
"7 c #D3D3D2",
"8 c #D4D4D3",
"9 c #FDFEFB",
"0 c #FFFFFD",
"q c #FFFFFE",
"w c white",
"e c None",
/* pixels */
"07,,&Xeeeeeeeeeeeeeeeeeeeeeeeeeeeeeeee",
"07,,&Xeeeeeeeeeeeeeeeeeeeeeeeeeeeeeeee",
"07,,&Xeeeeeeeeeeeeeeeeeeeeeeeeeeeeeeee",
"07,,&Xeeeeeeeeeeeeeeeeeeeeeeeeeeeeeeee",
"07,,&Xeeeeeeeeeeeeeeeeeeeeeeeeeeeeeeee",
"07,,&Xeeeeeeeeeeeeeeeeeeeeeeeeeeeeeeee",
"07,,&Xeeeeeeeeeeeeeeeeeeeeeeeeeeeeeeee",
"07,,&Xeeeeeeeeeeeeeeeeeeeeeeeeeeeeeeee",
"07,,&Xeeeeeeeeeeeeeeeeeeeeeeeeeeeeeeee",
"07,,&Xeeeeeeeeeeeeeeeeeeeeeeeeeeeeeeee",
"07,,&Xeeeeeeeeeeeeeeeeeeeeeeeeeeeeeeee",
"07,,&Xeeeeeeeeeeeeeeeeeeeeeeeeeeeeeeee",
"07,,&Xeeeeeeeeeeeeeeeeeeeeeeeeeeeeeeee",
"07,,&Xeeeeeeeeeeeeeeeeeeeeeeeeeeeeeeee",
"07,,&Xeeeeeeeeeeeeeeeeeeeeeeeeeeeeeeee",
"07,,&Xeeeeeeeeeeeeeeeeeeeeeeeeeeeeeeee",
"07,,&Xeeeeeeeeeeeeeeeeeeeeeeeeeeeeeeee",
"07,,&Xeeeeeeeeeeeeeeeeeeeeeeeeeeeeeeee",
"07,,&Xeeeeeeeeeeeeeeeeeeeeeeeeeeeeeeee",
"07,,&Xeeeeeeeeeeeeeeeeeeeeeeeeeeeeeeee",
"07,,&Xeeeeeeeeeeeeeeeeeeeeeeeeeeeeeeee",
"07,,&Xeeeeeeeeeeeeeeeeeeeeeeeeeeeeeeee",
"07,,&Xeeeeeeeeeeeeeeeeeeeeeeeeeeeeeeee",
"07,,&Xeeeeeeeeeeeeeeeeeeeeeeeeeeeeeeee",
"07,,&Xeeeeeeeeeeeeeeeeeeeeeeeeeeeeeeee",
"07,,&Xeeeeeeeeeeeeeeeeeeeeeeeeeeeeeeee",
"07,,&Xeeeeeeeeeeeeeeeeeeeeeeeeeeeeeeee",
"07,,&Xeeeeeeeeeeeeeeeeeeeeeeeeeeeeeeee",
"07,,&Xeeeeeeeeeeeeeeeeeeeeeeeeeeeeeeee",
"07,,&Xeeeeeeeeeeeeeeeeeeeeeeeeeeeeeeee",
"07,,&.eeeeeeeeeeeeeeeeeeeeeeeeeeeeeeee",
"07,,%oeeeeeeeeeeeeeeeeeeeeeeeeeeeeeeee",
"07,,$O4w999999999999999999999999999999",
"07>>=*36555555555555555555555555555555",
"08<,11,>>>>>>>>>>>>>>>>>>>>>>>>>>>>>>>",
"07>;,,>:::::::::::::::::::::::::::::::",
"q2@+##################################",
"q-                                    "
};
