/* XPM */
static char *bottom_inactive[] = {
/* columns rows colors chars-per-pixel */
"2 6 6 1 ",
"  c black",
". c #4E4F4E",
"X c #A2A2A2",
"o c #A3A3A3",
"O c #D2D2D1",
"+ c #FFFFFD",
/* pixels */
"++",
"OO",
"oo",
"XX",
"..",
"  "
};
