/* XPM */
static char * close_pressed_xpm[] = {
"20 24 44 1",
" 	c #FFFFFC",
".	c #B5C6DE",
"+	c #6588BD",
"@	c #6689BD",
"#	c #678ABE",
"$	c #6689BC",
"%	c #6385B7",
"&	c #6485B6",
"*	c #6485B7",
"=	c #6384B6",
"-	c #6284B6",
";	c #13171A",
">	c #2F3132",
",	c #393B3D",
"'	c #383B3C",
")	c #373A3B",
"!	c #202322",
"~	c #1A242F",
"{	c #6384B5",
"]	c #2E3132",
"^	c #EBEBEB",
"/	c #F4F5F4",
"(	c #F5F5F5",
"_	c #F4F4F4",
":	c #E9EAEA",
"<	c #1E262F",
"[	c #6283B5",
"}	c #383B3D",
"|	c #FFFFFE",
"1	c #FFFFFF",
"2	c #F3F3F3",
"3	c #202832",
"4	c #F3F3F4",
"5	c #373A3A",
"6	c #F3F4F3",
"7	c #E9EAEB",
"8	c #1D242D",
"9	c #1A242E",
"0	c #263446",
"a	c #6588BC",
"b	c #6385B8",
"c	c #6486B8",
"d	c #31435B",
"e	c #000000",
"                    ",
"....................",
"++++++++++++++++++++",
"++++++++++++++++++++",
"@@@@@@@@@@@@@@@@@@@@",
"@@@@@#######@@@@@@@@",
"@@@@$%&***=*@##@@@@@",
"@@@@-;>,')!~-@#@@@@@",
"@@@@{]^/(_:<[@@@@@@@",
"@@@@=}_|1|23[@@@@@@@",
"@@@@='_|1143[@@@@@@@",
"@@@@='_1||23[@@@@@@@",
"@@@@='_11|23[@@@@@@@",
"@@@@='_1||23[@@@@@@@",
"@@@@{5_1|143[@@@@@@@",
"@@@@[!:46478[@@@@@@@",
"@@@@-9<33380%@@@@@@@",
"@@@@ab=====c@#@@@@@@",
"@@@@##########@@@@@@",
"@@@###########@@@@@@",
"#@@@@###############",
"####################",
"dddddddddddddddddddd",
"eeeeeeeeeeeeeeeeeeee"};
