/* XPM */
static char * close_inactive_xpm[] = {
"20 24 32 1",
" 	c #FFFFFD",
".	c #D2D2D1",
"+	c #A2A2A2",
"@	c #A1A1A1",
"#	c #9C9C9C",
"$	c #9B9B9B",
"%	c #191918",
"&	c #323231",
"*	c #3C3D3C",
"=	c #3B3C3A",
"-	c #3A3B39",
";	c #242421",
">	c #20262C",
",	c #EBEBEB",
"'	c #F4F5F4",
")	c #F5F5F5",
"!	c #F4F4F4",
"~	c #E9EAEA",
"{	c #21272E",
"]	c #9B9B9C",
"^	c #FFFFFE",
"/	c #FFFFFF",
"(	c #F3F3F3",
"_	c #232930",
":	c #F3F3F4",
"<	c #232421",
"[	c #F3F4F3",
"}	c #20262B",
"|	c #2C3643",
"1	c #9C9D9D",
"2	c #4E4F4E",
"3	c #000000",
"                    ",
"....................",
"++++++++++++++++++++",
"++++++++++++++++++++",
"++++++++++++++++++++",
"++++++++++++++++++++",
"++++@#####$#@+++++++",
"++++#%&*=-;>#+++++++",
"++++#&,')!~{]+++++++",
"++++#*!^/^(_]+++++++",
"++++#=!^//:_]+++++++",
"++++#=!/^^(_]+++++++",
"++++#=!//^(_]+++++++",
"++++#=!/^^(_]+++++++",
"++++#-!/^/:_]+++++++",
"++++$<~:[:~}]+++++++",
"++++#>{___}|1+++++++",
"++++@#]]]]]1@+++++++",
"++++++++++++++++++++",
"++++++++++++++++++++",
"++++++++++++++++++++",
"++++++++++++++++++++",
"22222222222222222222",
"33333333333333333333"};
