/* XPM */
static char * hide_inactive_xpm[] = {
"34 24 134 2",
"  	c #FEFFFC",
". 	c #FDFEFB",
"+ 	c #FDFDFB",
"@ 	c #FCFCFA",
"# 	c #FFFFFD",
"$ 	c #FFFFFE",
"% 	c #FDFEFC",
"& 	c #E9EAE8",
"* 	c #D4D4D3",
"= 	c #D1D2D0",
"- 	c #D2D2D1",
"; 	c #D2D3D1",
"> 	c #A8A9A7",
", 	c #838482",
"' 	c #FCFCFB",
") 	c #A7A7A7",
"! 	c #A4A4A4",
"~ 	c #A5A5A5",
"{ 	c #A6A6A5",
"] 	c #A6A6A6",
"^ 	c #A1A1A1",
"/ 	c #A3A3A3",
"( 	c #4B4B4B",
"_ 	c #000000",
": 	c #D3D3D2",
"< 	c #A0A0A0",
"[ 	c #A2A2A2",
"} 	c #4A4B4B",
"| 	c #D3D4D2",
"1 	c #9B9B9B",
"2 	c #999999",
"3 	c #999A99",
"4 	c #9A9A9A",
"5 	c #4C4C4C",
"6 	c #343534",
"7 	c #1C1D1C",
"8 	c #2D2E2D",
"9 	c #2F3030",
"0 	c #2F2F2F",
"a 	c #2D2E2E",
"b 	c #333333",
"c 	c #9C9B9E",
"d 	c #A4A2A6",
"e 	c #A5A4A7",
"f 	c #A5A3A7",
"g 	c #9B9A9D",
"h 	c #A6A4A8",
"i 	c #B0AEB2",
"j 	c #AFADB1",
"k 	c #A6A5A8",
"l 	c #343535",
"m 	c #B1AFB3",
"n 	c #A9A7AB",
"o 	c #A7A6A9",
"p 	c #A7A5A9",
"q 	c #9E9CA0",
"r 	c #2A2B2A",
"s 	c #919291",
"t 	c #B2B0B4",
"u 	c #ACAAAE",
"v 	c #545355",
"w 	c #313232",
"x 	c #353535",
"y 	c #333434",
"z 	c #242524",
"A 	c #1B1C1B",
"B 	c #303130",
"C 	c #252625",
"D 	c #AAA8AC",
"E 	c #414242",
"F 	c #E5E5E5",
"G 	c #F0F0EF",
"H 	c #EFEFEE",
"I 	c #EEEFEC",
"J 	c #EFF0ED",
"K 	c #E1E2DF",
"L 	c #111110",
"M 	c #434344",
"N 	c #F1F1F1",
"O 	c #EDEEEB",
"P 	c #111111",
"Q 	c #424243",
"R 	c #FEFFFD",
"S 	c #EEEEED",
"T 	c #323232",
"U 	c #9F9DA1",
"V 	c #A8A6A9",
"W 	c #A7A5A8",
"X 	c #2A2B2B",
"Y 	c #EFEFEF",
"Z 	c #FFFFFF",
"` 	c #464646",
" .	c #2E2F2E",
"..	c #282828",
"+.	c #181918",
"@.	c #EEEFEE",
"#.	c #9C9C9C",
"$.	c #929292",
"%.	c #353635",
"&.	c #F0F0F0",
"*.	c #EDEEEC",
"=.	c #404140",
"-.	c #3E3E3E",
";.	c #E4E4E4",
">.	c #F0F1F0",
",.	c #E1E2E1",
"'.	c #0F0F0F",
").	c #3D3E3D",
"!.	c #424341",
"~.	c #414240",
"{.	c #414241",
"].	c #40413F",
"^.	c #FCFDFA",
"/.	c #9D9D9D",
"(.	c #FCFCFC",
"_.	c #D5D5D4",
":.	c #4C4D4C",
"<.	c #F4F4F4",
"[.	c #CDCDCC",
"}.	c #A1A1A0",
"|.	c #9E9E9E",
"1.	c #7B7B7A",
"2.	c #666766",
"3.	c #505150",
"4.	c #4E4E4E",
"5.	c #4E4F4E",
"6.	c #4F4F4F",
"7.	c #4F504F",
"8.	c #252525",
"9.	c #080808",
"0.	c #070707",
"a.	c #060606",
"b.	c #050505",
"c.	c #000100",
"  . + @ @ @ @ @ @ @ @ @ @ @ @ @ @ @ @ @ @ @ @ @ @ @ @ @ @ # # # # $ ",
"% & * = - - - - - - - - - - - - - - - - - - - - - - - - - - ; - > , ",
"' * ) ! ~ ~ { ] ] ] ] ] ] ] ] ] ] ] ] ] ] ] { ~ ~ ~ ~ ~ ~ ^ / ^ ( _ ",
"@ : ~ < ^ ^ [ / / / / / / / / / / / / / / / [ ^ ^ ^ ^ ^ ^ ^ / ^ } _ ",
"@ | { ^ [ < 1 2 3 4 4 4 4 4 4 4 4 4 4 4 3 2 1 < ^ ^ [ [ [ [ ! [ 5 _ ",
"@ | { ^ [ 4 6 7 8 9 0 0 0 0 0 0 0 0 0 9 a 7 6 4 ^ ^ ^ ^ ^ [ ! [ 5 _ ",
"@ | { ^ [ 2 b c d e e d e d e e d e d e f g b 2 [ ^ [ [ [ [ ! [ 5 _ ",
"@ | { ^ [ 2 6 h i j j i j i j j i j i j j k l 4 [ [ [ [ [ [ ! [ 5 _ ",
"@ | { ^ [ 2 6 k m i i i n o h h p h p h e q r s 2 2 2 2 2 [ ! [ 5 _ ",
"@ | { ^ [ 2 l p t i i u v w l l l l l x y z A 8 b b b B C [ ! [ 5 _ ",
"@ | { ^ [ 2 l p t i i D E F G G G G G G G H I J J J J K L [ ! [ 5 _ ",
"@ | { ^ [ 2 l k m i j n M N                           O P [ ! [ 5 _ ",
"@ | { ^ [ 2 l p t i i n Q N   R R R R R R R $ $ $ $ $ S P [ ! [ 5 _ ",
"@ | { ^ [ 2 T U V W h U X Y $ $ Z $ $ $ $ $ R R R R   O P [ ! [ 5 _ ",
"@ | { ^ [ 1 ` X a a  ...+.@.  R Z R R R R R R R R R   O P [ ! [ 5 _ ",
"@ | { ^ [ < #.4 2 2 2 $.%.&.  R Z R R R R R R R R R Z *.P [ ! [ 5 _ ",
"@ | { ^ [ ^ [ [ [ [ [ 4 =.N   R Z R R R R R R R R R Z *.P [ ! [ 5 _ ",
"@ | { ^ [ ^ [ [ [ [ [ 4 -.;.&.N N N N N N N N N N N >.,.'.[ ! [ 5 _ ",
"@ | { ^ [ ^ [ [ [ [ [ #.-.z ).!.~.~.~.~.~.~.~.~.~.{.].r '.[ ! [ 5 _ ",
"^.| ] [ [ [ [ [ [ [ / [ /.1 #.#.#.#.#.#.#.#.#.#.#.#.#.1 2 [ ! [ 5 _ ",
"(._.] [ / [ / / / / / / ! ! ! ! ! ! ! ! ! ! ! ! ! ! ! ! ! / ~ / :._ ",
"<.[.}.#././././././././.|.|.|.|.|.|.|.|.|.|.|.|.|.|.|.|.|./ ~ / :._ ",
"1.2.3.4.5.5.5.5.5.5.5.5.6.6.6.6.6.6.6.6.6.6.6.6.6.6.6.6.6.5.7.5.8._ ",
"9.0.a.b.b.b.b.b.b.b.b.b.b.b.b.b.b.b.b.b.b.b.b.b.b.b.b.b.b._ _ _ _ c."};
