/* XPM */
static char * hide_active_xpm[] = {
"35 24 194 2",
"  	c #FEFFFC",
". 	c #FCFDFB",
"+ 	c #FAFBFA",
"@ 	c #F9FBF9",
"# 	c #F7F8F7",
"$ 	c #F7F7F5",
"% 	c #DCE4EE",
"& 	c #B8C8DF",
"* 	c #B4C5DD",
"= 	c #B5C6DE",
"- 	c #B5C7DE",
"; 	c #B3C3DA",
"> 	c #9AA3AD",
", 	c #848684",
"' 	c #FAFBFB",
") 	c #B9CADF",
"! 	c #7192C2",
"~ 	c #6A8CBF",
"{ 	c #6B8DC0",
"] 	c #6C8EC1",
"^ 	c #6888B9",
"/ 	c #37475F",
"( 	c #0D0E10",
"_ 	c #B7C8DE",
": 	c #6C8DC0",
"< 	c #6488BC",
"[ 	c #6588BD",
"} 	c #6387BC",
"| 	c #6689BE",
"1 	c #6588BC",
"2 	c #6589BD",
"3 	c #668ABF",
"4 	c #6183B6",
"5 	c #2F4058",
"6 	c #040507",
"7 	c #B7C8DF",
"8 	c #6C8EC0",
"9 	c #6689BD",
"0 	c #6387BB",
"a 	c #6082B3",
"b 	c #6080B1",
"c 	c #6181B2",
"d 	c #6082B4",
"e 	c #6487BB",
"f 	c #678ABF",
"g 	c #6284B6",
"h 	c #304159",
"i 	c #5F82B3",
"j 	c #232E3F",
"k 	c #1B1E21",
"l 	c #2B2E32",
"m 	c #2E3034",
"n 	c #2D3034",
"o 	c #2B2F32",
"p 	c #5F80B1",
"q 	c #242E3C",
"r 	c #9A999D",
"s 	c #A3A1A5",
"t 	c #A4A3A6",
"u 	c #A4A2A6",
"v 	c #98979B",
"w 	c #5F81B2",
"x 	c #26303E",
"y 	c #A4A3A7",
"z 	c #B0AEB2",
"A 	c #AFADB1",
"B 	c #A4A3A8",
"C 	c #27313F",
"D 	c #6081B2",
"E 	c #B1AFB3",
"F 	c #A9A7AB",
"G 	c #A6A5A8",
"H 	c #A5A3A7",
"I 	c #A6A4A8",
"J 	c #9B9A9E",
"K 	c #1F2733",
"L 	c #5A7AA8",
"M 	c #6080B2",
"N 	c #AEACB0",
"O 	c #AAA8AC",
"P 	c #555556",
"Q 	c #353536",
"R 	c #383839",
"S 	c #383939",
"T 	c #393939",
"U 	c #363737",
"V 	c #272827",
"W 	c #1B1D1F",
"X 	c #252C35",
"Y 	c #29313C",
"Z 	c #28303B",
"` 	c #252E39",
" .	c #19222D",
"..	c #A7A5A9",
"+.	c #444545",
"@.	c #E1E1E1",
"#.	c #EEEEED",
"$.	c #EFEFEE",
"%.	c #EDEDEC",
"&.	c #ECEDEC",
"*.	c #EDEDED",
"=.	c #EDEEEE",
"-.	c #EEEEEE",
";.	c #DDDEDE",
">.	c #121213",
",.	c #A4A2A7",
"'.	c #ADABAF",
").	c #464647",
"!.	c #F0F0EF",
"~.	c #FFFFFE",
"{.	c #FFFFFF",
"].	c #ECECEB",
"^.	c #141414",
"/.	c #454546",
"(.	c #EFEFEF",
"_.	c #5F80B2",
":.	c #242E3B",
"<.	c #9A999E",
"[.	c #A5A4A8",
"}.	c #A3A2A6",
"|.	c #2E2E2D",
"1.	c #6083B4",
"2.	c #2E3D53",
"3.	c #202833",
"4.	c #232B36",
"5.	c #1E252F",
"6.	c #191A1D",
"7.	c #ECECEA",
"8.	c #FEFFFD",
"9.	c #EBECEA",
"0.	c #141413",
"a.	c #6184B5",
"b.	c #5E80B1",
"c.	c #6081B1",
"d.	c #5B7AA8",
"e.	c #283340",
"f.	c #EDEEEC",
"g.	c #6182B3",
"h.	c #2F3B4C",
"i.	c #EDEFED",
"j.	c #6489BC",
"k.	c #6489BD",
"l.	c #2D3949",
"m.	c #DFE0E1",
"n.	c #F0F0F0",
"o.	c #DDDEDD",
"p.	c #101011",
"q.	c #6589BE",
"r.	c #678ABE",
"s.	c #29374A",
"t.	c #23272A",
"u.	c #3C3F42",
"v.	c #404346",
"w.	c #3F4345",
"x.	c #3F4346",
"y.	c #3E4144",
"z.	c #282C2F",
"A.	c #0C0F13",
"B.	c #6284B5",
"C.	c #6384B5",
"D.	c #304259",
"E.	c #FAFBFD",
"F.	c #B8C9E0",
"G.	c #6D8FC1",
"H.	c #678BBF",
"I.	c #678BC0",
"J.	c #688BC0",
"K.	c #6385B7",
"L.	c #30425A",
"M.	c #F0F1F2",
"N.	c #B1C1D7",
"O.	c #6889B9",
"P.	c #6184B7",
"Q.	c #6285B7",
"R.	c #6386B7",
"S.	c #6386B8",
"T.	c #6486B8",
"U.	c #5F80B0",
"V.	c #2F3F56",
"W.	c #040406",
"X.	c #797B7A",
"Y.	c #59616D",
"Z.	c #35465D",
"`.	c #30425C",
" +	c #31435C",
".+	c #32435D",
"++	c #304158",
"@+	c #17202C",
"#+	c #020304",
"$+	c #09090A",
"%+	c #070808",
"&+	c #040407",
"*+	c #020303",
"=+	c #000100",
"  . + + + + + + + + + + + + + + + + + + + + + + + + + + + + + + @ # $ ",
". % & * = = = = = = = = = = = = = = = = = = = = = = = = = = = - ; > , ",
"' ) ! ~ { ~ ] ] ] ] ] ] ] ] ] ] ] ] ] ] ] ] ] { { { { { { { { ] ^ / ( ",
"' _ : < [ } | | | | | | | | | | | | | | | | | [ [ [ [ [ 1 [ 2 3 4 5 6 ",
"' 7 8 < 9 0 a b c c c c c c c c c c c c c b d e 1 1 1 1 9 [ 2 f g h 6 ",
"' 7 8 < 9 i j k l m n n n n n n n n n n o k j d [ 1 [ [ 1 9 9 f g h 6 ",
"' 7 8 < 9 p q r s t u s u s u s u s u s u v q w 1 9 1 1 9 9 9 f g h 6 ",
"' 7 8 < 9 p x y z A A z A z A z A z A z A B C D 9 9 9 9 9 9 9 f g h 6 ",
"' 7 8 < 9 p x y E A A z F G H I H I H I t J K L D D D D M 9 9 f g h 6 ",
"' 7 8 < 9 p x y N E A O P Q R S S S S T U V W X Y Z Z `  .9 9 f g h 6 ",
"' 7 8 < 9 p x y z N A ..+.@.#.$.$.$.$.$.#.%.&.*.=.-.=.;.>.9 9 f g h 6 ",
"' 7 8 < 9 p x ,.'.A A u ).!.~.~.~.~.~.~.~.~.~.~.~.~.{.].^.9 9 f g h 6 ",
"' 7 8 < 9 p x y z A A I /.(.~.~.~.~.~.~.~.~.~.~.~.~.{.].^.9 9 f g h 6 ",
"' 7 8 < 9 _.:.<.[.y }.J |.%.~.~.~.~.~.~.~.~.~.~.~.~.{.].^.9 9 f g h 6 ",
"' 7 8 < 9 1.2.3.4.4.4.5.6.7.  8.8.8.8.8.8.8.8.8.8.8.{.9.0.9 9 f g h 6 ",
"' 7 8 < 9 e a.b.c.c.c.d.e.f.  8.8.8.8.8.8.8.8.8.8.8.{.9.0.9 9 f g h 6 ",
"' 7 8 < 9 < 9 < 9 9 9 g.h.i.  8.8.8.8.8.8.8.8.8.8.8.{.9.0.9 9 f g h 6 ",
"' 7 8 < 9 j.9 k.9 9 9 g.l.m.$.!.n.n.n.n.n.n.n.n.n.n.(.o.p.9 9 f g h 6 ",
"' 7 8 < f q.f q.r.r.r.g s.t.u.v.w.w.w.w.w.w.w.w.w.x.y.z.A.9 9 f g h 6 ",
"' 7 8 j.r.q.q.r.r.r.r.9 g g.B.C.C.C.C.C.C.C.C.C.C.C.C.g.D r.9 f g D.6 ",
"E.F.G.q.f q.q.r.r.r.r.r.r.H.I.I.I.I.I.I.I.I.I.I.I.I.I.I.I.r.r.J.K.L.6 ",
"M.N.O.P.Q.P.K.K.K.K.K.K.R.S.S.S.S.S.S.S.S.S.S.S.S.S.S.S.S.K.K.T.U.V.W.",
"X.Y.Z.`. + + + + + + + + + + + + + + + + + + + + + + + + + + +.+++@+#+",
"$+%+6 6 6 6 6 6 6 6 6 6 6 6 6 6 6 6 6 6 6 6 6 6 6 6 6 6 6 6 6 6 &+*+=+"};
