/* XPM */
static char * maximize_inactive_xpm[] = {
"35 24 95 2",
"  	c #FEFFFC",
". 	c #FFFFFD",
"+ 	c #FFFFFE",
"@ 	c #E9EAE8",
"# 	c #D2D2D1",
"$ 	c #D1D2D0",
"% 	c #D2D3D1",
"& 	c #A8A9A7",
"* 	c #838482",
"= 	c #D3D3D2",
"- 	c #A1A1A1",
"; 	c #A0A0A0",
"> 	c #A2A2A2",
", 	c #A3A3A3",
"' 	c #4B4B4B",
") 	c #000000",
"! 	c #4A4B4B",
"~ 	c #999A99",
"{ 	c #969796",
"] 	c #9A9A9A",
"^ 	c #9C9C9C",
"/ 	c #9B9C9B",
"( 	c #999999",
"_ 	c #979797",
": 	c #969696",
"< 	c #989898",
"[ 	c #9F9F9F",
"} 	c #A4A4A4",
"| 	c #4C4C4C",
"1 	c #2E302E",
"2 	c #232323",
"3 	c #454645",
"4 	c #5E605E",
"5 	c #626362",
"6 	c #5F605E",
"7 	c #595958",
"8 	c #3B3D3B",
"9 	c #212121",
"0 	c #151515",
"a 	c #2C2C2C",
"b 	c #363736",
"c 	c #363636",
"d 	c #3D3D3D",
"e 	c #2C2D2C",
"f 	c #242424",
"g 	c #252625",
"h 	c #DBDBDB",
"i 	c #EEEEEE",
"j 	c #F1F1F1",
"k 	c #F0F0F0",
"l 	c #EDEDED",
"m 	c #222322",
"n 	c #9D9D9D",
"o 	c #9D9E9D",
"p 	c #2B2C2B",
"q 	c #EBEBEB",
"r 	c #FFFFFF",
"s 	c #ECECEC",
"t 	c #2A2B2A",
"u 	c #9B9B9B",
"v 	c #313231",
"w 	c #282928",
"x 	c #EBECEB",
"y 	c #242524",
"z 	c #202120",
"A 	c #DADADA",
"B 	c #262726",
"C 	c #161716",
"D 	c #1E1E1E",
"E 	c #313131",
"F 	c #474847",
"G 	c #464746",
"H 	c #464745",
"I 	c #424341",
"J 	c #2D2E2D",
"K 	c #202020",
"L 	c #303130",
"M 	c #232423",
"N 	c #919291",
"O 	c #9C9D9C",
"P 	c #2F302F",
"Q 	c #272827",
"R 	c #353635",
"S 	c #979897",
"T 	c #D5D5D3",
"U 	c #A5A5A5",
"V 	c #4C4D4C",
"W 	c #D4D5D3",
"X 	c #7B7C7A",
"Y 	c #666765",
"Z 	c #4E4F4E",
"` 	c #4E4E4E",
" .	c #4F504F",
"..	c #252525",
"+.	c #000100",
"    . . . . . . . . . . . . . . . . . . . . . . . . . . . . . . . . + ",
"  @ # $ # # # # # # # # # # # # # # # # # # # # # # # # # # # % # & * ",
". = - ; - - - > > - - - - - - - - - - - - - - - - ; ; > - - - , - ' ) ",
". % - ; - ; - - , > > > > > > > > > > > > > > > > - - ; - - - , - ! ) ",
". = > - > - > - ~ { ] ^ ^ ^ / ( _ : < ( ( ( ( ( < : _ [ > > > } > | ) ",
". = > - > - > ] 1 2 3 4 5 6 7 8 9 0 a b c b d d b e f _ > , > } > | ) ",
". = > - > - > _ g h i j j j k l h m : n n n o o n < p : > , > } > | ) ",
". = > - > - > : g q r r r r r r s t u , > > > > , n v : > , > } > | ) ",
". = > - > - > _ w x r r r r r r s t ] > > > > > > ^ e : > , > } > | ) ",
". = > - > - > _ w x r r r r r r s t ] > > > > > > ^ p : > , > } > | ) ",
". = > - > - > : y q r r r r r r s t ] > > > > > > ^ p : > , > } > | ) ",
". = > - > - > : z A s i i i i s h B ] > > > > > > ^ e : > , > } > | ) ",
". = > - > - > : C D E F G H I J K m ] > > > > > > ^ L : > , > } > | ) ",
". = > - > - > _ M N < ] ] ] ( < _ ( - > > > > > > ^ L { > , > } > | ) ",
". = > - > - > < p n , , , , , , , , > > > > > > > ^ L { > , > } > | ) ",
". = > - > - > < e n , , , , , , , , > > > > > > > ^ L : > , > } > | ) ",
". = > - > - > < e n } , , , , , , , , > > > > > , O J : > , > } > | ) ",
". = > - > - > _ B _ n n n n n ^ ^ ^ ^ ^ ^ ^ ^ ^ n _ P : > , > } > | ) ",
". = > - > - > ( z Q v v R R v L L L L L L L L L v Q 9 _ > , > } > | ) ",
". = > - > - > - < : S _ _ _ _ { { { { { { { { _ _ : _ [ > > > } > | ) ",
"r T , > , > , , , > , > > > > > > > > > > > > > > > > - , , , U , V ) ",
"+ W , > , , , } , > , > , , , , , , , , , , , , , , > - , , , U , V ) ",
"X Y Z ` Z Z Z Z Z Z Z Z Z Z Z Z Z Z Z Z Z Z Z Z Z Z Z Z Z Z Z  .Z ..) ",
") ) ) ) ) ) ) ) ) ) ) ) ) ) ) ) ) ) ) ) ) ) ) ) ) ) ) ) ) ) ) ) ) ) +."};
