/* XPM */
static char * maximize_active_xpm[] = {
"35 24 141 2",
"  	c #FEFFFC",
". 	c #FDFDFB",
"+ 	c #FAFBFA",
"@ 	c #F9FBF9",
"# 	c #F7F8F7",
"$ 	c #F7F7F5",
"% 	c #DCE4EE",
"& 	c #B8C8DF",
"* 	c #B4C5DD",
"= 	c #B5C6DE",
"- 	c #B5C7DE",
"; 	c #B3C3DA",
"> 	c #9AA3AD",
", 	c #848684",
"' 	c #FAFBFB",
") 	c #B9C9DF",
"! 	c #7191C2",
"~ 	c #6A8CBF",
"{ 	c #6B8DC0",
"] 	c #6B8EC0",
"^ 	c #6C8EC1",
"/ 	c #6888B9",
"( 	c #37475F",
"_ 	c #0D0E10",
": 	c #B6C7DE",
"< 	c #6C8DC0",
"[ 	c #6488BC",
"} 	c #6588BD",
"| 	c #6689BD",
"1 	c #6689BE",
"2 	c #6589BD",
"3 	c #668ABF",
"4 	c #6183B6",
"5 	c #2F4058",
"6 	c #040507",
"7 	c #B7C8DF",
"8 	c #6C8EC0",
"9 	c #6588BB",
"0 	c #6081B3",
"a 	c #5F80B1",
"b 	c #6081B2",
"c 	c #6282B3",
"d 	c #5F80B2",
"e 	c #6487BB",
"f 	c #678ABF",
"g 	c #6284B6",
"h 	c #304159",
"i 	c #6082B2",
"j 	c #12181F",
"k 	c #181B1F",
"l 	c #282C2E",
"m 	c #3D3F42",
"n 	c #3F4245",
"o 	c #3F4345",
"p 	c #3B3E41",
"q 	c #26292C",
"r 	c #0D1116",
"s 	c #18202B",
"t 	c #1E2936",
"u 	c #1D2836",
"v 	c #1E2937",
"w 	c #18202C",
"x 	c #131A23",
"y 	c #6284B5",
"z 	c #668ABE",
"A 	c #181C20",
"B 	c #DDDDDD",
"C 	c #EEEEEE",
"D 	c #EFEFEF",
"E 	c #F0F0F0",
"F 	c #DDDEDE",
"G 	c #1A1E22",
"H 	c #5F80B0",
"I 	c #6385B8",
"J 	c #6386B8",
"K 	c #17202B",
"L 	c #6183B4",
"M 	c #1B2024",
"N 	c #ECEDED",
"O 	c #FFFFFF",
"P 	c #EDEDED",
"Q 	c #20252A",
"R 	c #678ABE",
"S 	c #1B2531",
"T 	c #6183B5",
"U 	c #6283B6",
"V 	c #1B2432",
"W 	c #1B2431",
"X 	c #181D21",
"Y 	c #1C2126",
"Z 	c #6283B5",
"` 	c #0E1217",
" .	c #171A1D",
"..	c #292C2E",
"+.	c #3B3F41",
"@.	c #151C24",
"#.	c #5F81B1",
"$.	c #141D26",
"%.	c #5D7DAC",
"&.	c #6182B2",
"*.	c #6383B3",
"=.	c #6081B1",
"-.	c #6182B3",
";.	c #5F81B2",
">.	c #1A2431",
",.	c #6386B9",
"'.	c #688BBF",
").	c #6489BC",
"!.	c #6489BD",
"~.	c #6689BC",
"{.	c #6082B4",
"].	c #304259",
"^.	c #FAFBFC",
"/.	c #B8C9E0",
"(.	c #6D8FC1",
"_.	c #6589BE",
":.	c #678BC0",
"<.	c #688BC0",
"[.	c #6385B7",
"}.	c #30425A",
"|.	c #F0F2F2",
"1.	c #B0C1D7",
"2.	c #6889B9",
"3.	c #6184B7",
"4.	c #6486B8",
"5.	c #2F3F56",
"6.	c #040406",
"7.	c #797B7A",
"8.	c #58616D",
"9.	c #35465D",
"0.	c #31425C",
"a.	c #31435C",
"b.	c #32435D",
"c.	c #304158",
"d.	c #17202C",
"e.	c #020304",
"f.	c #090909",
"g.	c #070808",
"h.	c #040407",
"i.	c #020303",
"j.	c #000100",
"  . + + + + + + + + + + + + + + + + + + + + + + + + + + + + + + @ # $ ",
". % & * = = = = = = = = = = = = = = = = = = = = = = = = = = = - ; > , ",
"' ) ! ~ { { { ] ^ ^ ^ ^ ^ ^ ^ ^ ^ ^ ^ ^ ^ ^ ^ ^ ^ ^ ^ ] { { { ^ / ( _ ",
"' : < [ } [ | } 1 1 1 1 1 1 1 1 1 1 1 1 1 1 1 1 1 1 1 2 } } 2 3 4 5 6 ",
"' 7 8 [ | [ | 9 0 a b c c c c b a a d b b b b b b d 0 e } } 2 f g h 6 ",
"' 7 8 [ | [ | i j k l m n o p q k r s t u u u u v w x y z | | f g h 6 ",
"' 7 8 [ | [ | a A B C D E E D C F G H I I I I I J b K L z | | f g h 6 ",
"' 7 8 [ | [ | a M N O O O O O O P Q g R 1 | | 1 R I S T z | | f g h 6 ",
"' 7 8 [ | [ | a M N O O O O O O P Q U 1 1 | | 1 1 I V T z | | f g h 6 ",
"' 7 8 [ | [ | a M N O O O O O O P Q U | | | | | | I W T z | | f g h 6 ",
"' 7 8 [ | [ | a M N O O O O O O P Q U | | | | | | I W T z | | f g h 6 ",
"' 7 8 [ | [ | a X B C D E E D C F Y Z | | | | | | I W T z | | f g h 6 ",
"' 7 8 [ | [ | a `  ...m n o +.q k @.Z | | | | | | I W T z | | f g h 6 ",
"' 7 8 [ | [ | #.$.%.&.*.*.*.*.&.=.-.9 | | | | | | I W T z | | f g h 6 ",
"' 7 8 [ | [ | ;.>.J R R R R R R R R z | | | | | | I W T z | | f g h 6 ",
"' 7 8 [ | [ | b W ,.f f f f f f f R z 1 1 | | 1 1 I V T z | | f g h 6 ",
"' 7 8 [ | [ | b S J '.f f f f f f R z z 1 | | 1 R I S T z | | f g h 6 ",
"' 7 8 [ | [ | ;.K b J I I I I I I I I I I I I I J b K L z | | f g h 6 ",
"' 7 8 [ | [ | b x w v u u u u u u u u u u u u u v w x y z | | f g h 6 ",
"' 7 8 ).| !.R ~.T {.L L L L L L L L L L L L L L L {.T ~.R R | f g ].6 ",
"^./.(._.R _.R f :.:.:.:.:.:.:.:.:.:.:.:.:.:.:.:.:.:.:.f R R R <.[.}.6 ",
"|.1.2.3.[.[.[.I J J J J J J J J J J J J J J J J J J J I [.[.[.4.H 5.6.",
"7.8.9.0.a.a.a.a.a.a.a.a.a.a.a.a.a.a.a.a.a.a.a.a.a.a.a.a.a.a.a.b.c.d.e.",
"f.g.6 6 6 6 6 6 6 6 6 6 6 6 6 6 6 6 6 6 6 6 6 6 6 6 6 6 6 6 6 6 h.i.j."};
