/* XPM */
static char * title_4_inactive_xpm[] = {
"2 24 12 1",
" 	c None",
".	c #FFFFFD",
"+	c #FFFFFE",
"@	c #A8A9A7",
"#	c #838482",
"$	c #4B4B4B",
"%	c #000000",
"&	c #4A4B4B",
"*	c #4C4C4C",
"=	c #4C4D4C",
"-	c #252525",
";	c #000100",
".+",
"@#",
"$%",
"&%",
"*%",
"*%",
"*%",
"*%",
"*%",
"*%",
"*%",
"*%",
"*%",
"*%",
"*%",
"*%",
"*%",
"*%",
"*%",
"*%",
"=%",
"=%",
"-%",
"%;"};
