/* XPM */
static char *title_2_active[] = {
/* columns rows colors chars-per-pixel */
"18 24 33 1 ",
"  c #000000",
". c #000100",
"X c #3E3E3C",
"o c #2F415A",
"O c #31435B",
"+ c #3F4D61",
"@ c #6F7375",
"# c #7F7F7B",
"$ c #80807C",
"% c #81817D",
"& c #6084BA",
"* c #6185BB",
"= c #6186BC",
"- c #6588BD",
"; c #6689BD",
": c #678ABE",
"> c #828381",
", c #C1C1BE",
"< c #809EC9",
"1 c #819EC9",
"2 c #819FC9",
"3 c #82A0CB",
"4 c #B2C4DD",
"5 c #B5C6DE",
"6 c #C2D0E4",
"7 c #E6EDF3",
"8 c #E8EEF5",
"9 c #E8EFF5",
"0 c #F2F6F8",
"q c #FEFFFC",
"w c #FFFFFC",
"e c #FFFFFD",
"r c #FFFFFE",
/* pixels */
"reqwwwwwwwwwwwwwww",
">,0645555555555555",
" #71&-------------",
" #7<&-------------",
" $72*;;;;;;;;;;;;;",
" $72*;;;;;;;;;;;;;",
" $72*;;;;;;;;;;;;;",
" $72*;;;;;;;;;;;;;",
" $72*;;;;;;;;;;;;;",
" $72*;;;;;;;;;;;;;",
" $72*;;;;;;;;;;;;;",
" $72*;;;;;;;;;;;;;",
" $72*;;;;;;;;;;;;;",
" $72*;;;;;;;;;;;;;",
" $72*;;;;;;;;;;;;;",
" $72*;;;;;;;;;;;;;",
" $72*;;;;;;;;;;;;;",
" $72*;;;;;;;;;;;;;",
" $72*;;;;;;;;;;;;;",
" $72*;;;;;;;;;;;;;",
" %93=:::::::::::::",
" %83=:::::::::::::",
" X@+oOOOOOOOOOOOOO",
".                 "
};
