/* XPM */
static char *title_2_inactive[] = {
/* columns rows colors chars-per-pixel */
"18 24 32 1 ",
"  c #000000",
". c #000100",
"X c #3D3E3C",
"o c #4D4D4D",
"O c #4E4F4E",
"+ c #575756",
"@ c #747573",
"# c #7D7E7C",
"$ c #7E7F7D",
"% c #7F807E",
"& c #828381",
"* c #9E9E9E",
"= c #9F9F9F",
"- c #A0A0A0",
"; c #A1A1A1",
": c #A2A2A2",
"> c #A3A3A3",
", c #B3B3B2",
"< c #B3B3B3",
"1 c #B4B5B4",
"2 c #B5B5B4",
"3 c #C0C1BF",
"4 c #D0D0CF",
"5 c #D2D2D1",
"6 c #DADBD9",
"7 c #F0F1EE",
"8 c #F0F1EF",
"9 c #F2F3F0",
"0 c #F7F8F5",
"q c #FEFFFC",
"w c #FFFFFD",
"e c #FFFFFE",
/* pixels */
"ewqwwwwwwwwwwwwwww",
"&30645555555555555",
" #7,*;;;;;;;;;;;;;",
" #7,*;;;;;;;;;;;;;",
" $8<=:::::::::::::",
" $8<=:::::::::::::",
" $8<=:::::::::::::",
" $8<=:::::::::::::",
" $8<=:::::::::::::",
" $8<=:::::::::::::",
" $8<=:::::::::::::",
" $8<=:::::::::::::",
" $8<=:::::::::::::",
" $8<=:::::::::::::",
" $8<=:::::::::::::",
" $8<=:::::::::::::",
" $8<=:::::::::::::",
" $8<=:::::::::::::",
" $8<=:::::::::::::",
" $8<=:::::::::::::",
" %92->>>>>>>>>>>>>",
" %91->>>>>>>>>>>>>",
" X@+oOOOOOOOOOOOOO",
".                 "
};
