/* XPM */
static char * title_4_active_xpm[] = {
"2 24 11 1",
" 	c None",
".	c #FFFFFD",
"+	c #FFFFFE",
"@	c #9AA3AD",
"#	c #838481",
"$	c #2E3F57",
"%	c #000000",
"&	c #304158",
"*	c #304159",
"=	c #17202B",
"-	c #000100",
".+",
"@#",
"$%",
"$%",
"&%",
"&%",
"&%",
"&%",
"&%",
"&%",
"&%",
"&%",
"&%",
"&%",
"&%",
"&%",
"&%",
"&%",
"&%",
"&%",
"*%",
"*%",
"=-",
"--"};
