/* XPM */
static char * top_right_inactive_xpm[] = {
"9 24 19 1",
" 	c None",
".	c #FFFFFD",
"+	c #FEFFFC",
"@	c #FFFFFE",
"#	c #D2D2D1",
"$	c #D2D3D1",
"%	c #E9EAE8",
"&	c #A9AAA8",
"*	c #838482",
"=	c #A1A1A1",
"-	c #A2A2A2",
";	c #D3D3D2",
">	c #4D4E4D",
",	c #000000",
"'	c #4D4D4D",
")	c #A3A3A3",
"!	c #4E4F4E",
"~	c #FFFFFF",
"{	c #D5D5D3",
"...++..@@",
"#$$+%#$&*",
"=--.;=->,",
"=--.$=-',",
"-)).;-)!,",
"-)).;-)!,",
"-)).;-)!,",
"-)).;-)!,",
"-)).;-)!,",
"-)).;-)!,",
"-)).;-)!,",
"-)).;-)!,",
"-)).;-)!,",
"-)).;-)!,",
"-)).;-)!,",
"-)).;-)!,",
"-)).;-)!,",
"-)).;-)!,",
"-)).;-)!,",
"-)).;-)!,",
")))~{))!,",
"-)).;-)!,",
"-)).;-)!,",
"-)).;-)!,"};
