/* XPM */
static char *top_left_active[] = {
/* columns rows colors chars-per-pixel */
"6 24 18 1 ",
"  c black",
". c #30415A",
"X c #30425A",
"o c #31435B",
"O c #6487BC",
"+ c #6588BD",
"@ c #6689BD",
"# c #6689BE",
"$ c #678ABE",
"% c #838482",
"& c #9BA4AE",
"* c #B4C6DD",
"= c #B5C6DE",
"- c #DBE3ED",
"; c #FEFFFC",
": c #FFFFFC",
"> c #FFFFFD",
", c #FFFFFE",
/* pixels */
";:::::",
":-**==",
":*OO++",
":*OO++",
":=++@@",
":=++@@",
":=++@@",
":=++@@",
":=++@@",
":=++@@",
":=++@@",
":=++@@",
":=++@@",
":=++@@",
":=++@@",
":=++@@",
":=++@@",
":=++@@",
":=++@@",
":=++@@",
":=##$$",
":=##$$",
">&X.oo",
",%    "
};
