/* XPM */
static char * top_right_active_xpm[] = {
"9 24 23 1",
" 	c None",
".	c #FFFFFC",
"+	c #FAFBFA",
"@	c #FEFFFC",
"#	c #FDFDFB",
"$	c #FFFFFD",
"%	c #FFFFFE",
"&	c #B5C6DE",
"*	c #B8C8DF",
"=	c #DCE4EE",
"-	c #9BA4AE",
";	c #838482",
">	c #6689BE",
",	c #FAFBFB",
"'	c #B9C9DF",
")	c #678ABE",
"!	c #30425A",
"~	c #000000",
"{	c #B6C7DE",
"]	c #30415A",
"^	c #B7C8DF",
"/	c #31435B",
"(	c #6889B9",
"..+@#+.$%",
"&&*#=*&-;",
">>>,'))!~",
">>),{))]~",
"))),^))/~",
"))),^))/~",
"))),^))/~",
"))),^))/~",
"))),^))/~",
"))),^))/~",
"))),^))/~",
"))),^))/~",
"))),^))/~",
"))),^))/~",
"))),^))/~",
"))),^))/~",
"))),^))/~",
"))),^))/~",
"))),^))/~",
"))),^))/~",
"))),^))/~",
"))),^))/~",
"))),^))/~",
"))(,^))/~"};
