/* XPM */
static char *top_left_inactive[] = {
/* columns rows colors chars-per-pixel */
"6 24 16 1 ",
"  c black",
". c #4D4D4D",
"X c #4D4E4D",
"o c #4E4F4E",
"O c #838482",
"+ c #A1A1A1",
"@ c #A2A2A2",
"# c #A3A3A3",
"$ c #A9AAA8",
"% c #D1D2D0",
"& c #D2D2D1",
"* c #D2D3D1",
"= c #E9E9E7",
"- c #FEFFFC",
"; c #FFFFFD",
": c #FFFFFE",
/* pixels */
"--;;;;",
"-=%%&&",
";%++++",
";%++++",
";&++@@",
";&++@@",
";&++@@",
";&++@@",
";&++@@",
";&++@@",
";&++@@",
";&++@@",
";&++@@",
";&++@@",
";&++@@",
";&++@@",
";&++@@",
";&++@@",
";&++@@",
";&++@@",
";*####",
";*@@##",
":$X.oo",
":O    "
};
