/* XPM */
static char * hide_active_xpm[] = {
"24 20 4 1",
" 	c None",
".	c #0057AF",
"+	c #FFFFFF",
"@	c #000020",
"..++++++++++++++++++++++",
"..++++++++++++++++++++++",
"..++..............++++++",
"..++..............++++++",
"..++..++++++++++..++++++",
"..++..++++++++++..++++++",
"..++..++@@@@@@@@@@@@@@++",
"..++..++@@@@@@@@@@@@@@++",
"..++..++@@@@@@@@@@@@@@++",
"..++..++@@@@@@@@@@@@@@++",
"..++..++@@@@@@@@@@@@@@++",
"..++..++@@@@@@@@@@@@@@++",
"..++....@@@@@@@@@@@@@@++",
"..++....@@@@@@@@@@@@@@++",
"..++++++@@@@@@@@@@@@@@++",
"..++++++@@@@@@@@@@@@@@++",
"..++++++@@@@@@@@@@@@@@++",
"..++++++@@@@@@@@@@@@@@++",
"..++++++++++++++++++++++",
"..++++++++++++++++++++++"};
