/* XPM */
static char * hide_pressed_xpm[] = {
"24 20 5 1",
" 	c None",
".	c #0057AF",
"+	c #000000",
"@	c #FFA850",
"#	c #FFFFDF",
"..++++++++++++++++++++++",
"..++++++++++++++++++++++",
"..++@@@@@@@@@@@@@@++++++",
"..++@@@@@@@@@@@@@@++++++",
"..++@@++++++++++@@++++++",
"..++@@++++++++++@@++++++",
"..++@@++##############++",
"..++@@++##############++",
"..++@@++##############++",
"..++@@++##############++",
"..++@@++##############++",
"..++@@++##############++",
"..++@@@@##############++",
"..++@@@@##############++",
"..++++++##############++",
"..++++++##############++",
"..++++++##############++",
"..++++++##############++",
"..++++++++++++++++++++++",
"..++++++++++++++++++++++"};
