/* XPM */
static char * title_5_active_xpm[] = {
"1 20 3 1",
" 	c None",
".	c #FFFFFF",
"+	c #0057AF",
".",
".",
".",
".",
"+",
"+",
"+",
"+",
".",
".",
".",
".",
"+",
"+",
"+",
"+",
".",
".",
".",
"."};
