/* XPM */
static char * title_5_inactive_xpm[] = {
"4 20 3 1",
" 	c None",
".	c #FFFFFF",
"+	c #0057AF",
"....",
"....",
"....",
"....",
".+++",
".+++",
"++.+",
"++.+",
"....",
"....",
"....",
"....",
".+++",
".+++",
"++.+",
"++.+",
"....",
"....",
"....",
"...."};
