/* XPM */
static char * title_2_inactive_xpm[] = {
"4 20 3 1",
" 	c None",
".	c #0057AF",
"+	c #FFFFFF",
"..++",
"..++",
"..++",
"..++",
"..++",
"..++",
"..++",
"..++",
"..++",
"..++",
"..++",
"..++",
"..++",
"..++",
"..++",
"..++",
"..++",
"..++",
"..++",
"..++"};
