/* XPM */
static char * top_right_inactive_xpm[] = {
"8 20 2 1",
" 	c #0057AF",
".	c #FFFFFF",
"    ....",
"    ....",
"    ....",
"    ....",
"    ....",
"    ....",
"    ....",
"    ....",
"    ....",
"    ....",
"    ....",
"    ....",
"    ....",
"    ....",
"    ....",
"    ....",
"    ....",
"    ....",
"    ....",
"    ...."};
