/* XPM */
static char * top_left_active_xpm[] = {
"6 20 3 1",
" 	c None",
".	c #FFFFFF",
"+	c #0057AF",
"....++",
"....++",
"....++",
"....++",
"....++",
"....++",
"....++",
"....++",
"....++",
"....++",
"....++",
"....++",
"....++",
"....++",
"....++",
"....++",
"....++",
"....++",
"....++",
"....++"};
