/* XPM */
static char *close_active[] = {
/* columns rows colors chars-per-pixel */
"30 30 27 1 ",
"  c #000016",
". c #00001B",
"X c #00001F",
"o c #34344B",
"O c #37374E",
"+ c #606074",
"@ c #004FAC",
"# c #0050AC",
"$ c #0051AC",
"% c #0052AD",
"& c #0C5DB2",
"* c #2C72BC",
"= c #3478BE",
"- c #377ABF",
"; c #387AC0",
": c #6096CD",
"> c #9FC0E1",
", c #C7C7CE",
"< c #C8C8CF",
"1 c #D3D3D9",
"2 c #C7DAED",
"3 c #C8DBEE",
"4 c #CBDCEF",
"5 c #D3E2F1",
"6 c #F3F3F5",
"7 c #F3F7FB",
"8 c #FFFFFF",
/* pixels */
"888888888888888888888888888888",
"888888888888888888888888888888",
"887523333333333333333333325788",
"885:=--------------------=:588",
"882=#%$@##############@$%#=288",
"883-%&*;--------------;*&%-388",
"883-$*>4333333333333334>*$-388",
"883-@;488888888888888884;@-388",
"883-#-388888888888888883-#-388",
"883-#-388888888888888883-#-388",
"883-#-388888888888888883-#-388",
"883-#-3888861,<<,1688883-#-388",
"883-#-388881+oOOo+188883-#-388",
"883-#-38888,o .. o,88883-#-388",
"883-#-38888<O.XX.O<88883-#-388",
"883-#-38888<O.XX.O<88883-#-388",
"883-#-38888,o .. o,88883-#-388",
"883-#-388881+oOOo+188883-#-388",
"883-#-3888861,<<,1688883-#-388",
"883-#-388888888888888883-#-388",
"883-#-388888888888888883-#-388",
"883-#-388888888888888883-#-388",
"883-@;488888888888888884;@-388",
"883-$*>4333333333333334>*$-388",
"883-%&*;--------------;*&%-388",
"882=#%$@##############@$%#=288",
"885:=--------------------=:588",
"887523333333333333333333325788",
"888888888888888888888888888888",
"888888888888888888888888888888"
};
