/* XPM */
static char *hide_active[] = {
/* columns rows colors chars-per-pixel */
"36 30 53 1 ",
"  c #000016",
". c #00001B",
"X c #00001C",
"o c #00001D",
"O c #00001E",
"+ c #00001F",
"@ c #000020",
"# c #00113D",
"$ c #0C1A41",
"% c #2C2F4B",
"& c #34344B",
"* c #37374E",
"= c #37374F",
"- c #38374F",
"; c #38384F",
": c #606074",
"> c #003F8E",
", c #2C609E",
"< c #004FAC",
"1 c #0050AC",
"2 c #0051AC",
"3 c #0052AC",
"4 c #0052AD",
"5 c #0052AE",
"6 c #0054AD",
"7 c #0056AF",
"8 c #0C5DB2",
"9 c #2C72BC",
"0 c #2C73BD",
"q c #3478BE",
"w c #377ABF",
"e c #377AC0",
"r c #387AC0",
"t c #387CC3",
"y c #3A7DC3",
"u c #6096CD",
"i c #9FADC3",
"p c #9FAEC3",
"a c #9FC0E1",
"s c #C7C7CE",
"d c #C8C8CF",
"f c #CBCAD0",
"g c #D3D3D9",
"h c #C7DAED",
"j c #C8DBEE",
"k c #C8DBEF",
"l c #CBDCEF",
"z c #CBDEF1",
"x c #CEE0F2",
"c c #D3E2F1",
"v c #F3F3F5",
"b c #F3F7FB",
"n c #FFFFFF",
/* pixels */
"76ejnnnnnnnnnnnnnnnnnnnnnnnnnnnnnnnn",
"76ejnnnnnnnnnnnnnnnnnnnnnnnnnnnnnnnn",
"76ejnbchjjjjjjjjjjjjjjjjjhcbnnnnnnnn",
"76ejncuqwwwwwwwwwwwwwwwwwqucnnnnnnnn",
"76ejnhq142<11111111111<241qhnnnnnnnn",
"76ejnjw489rwwwwwwwwwwwr984wjnnnnnnnn",
"76ejnjw29alkjjjjjjjjjkla03eknnnnnnnn",
"76ejnjw<rlnnnnnnnnnnnnnxy5tznnnnnnnn",
"76ejnjw1wknvgsddddddddfp,>,ifddsgvnn",
"76ejnjw1wjng:&*=======;%$#$%;-*&:gnn",
"76ejnjw1wjns& .XXXXXXXXXoooXXX. &snn",
"76ejnjw1wjnd*.O+++++++++++++++O.*dnn",
"76ejnjw1wjnd=X+@@@@@@@@@@@@@@@+X=dnn",
"76ejnjw1wjnd=X+@@@@@@@@@@@@@@@+X=dnn",
"76ejnjw1wjnd=X+@@@@@@@@@@@@@@@+X=dnn",
"76ejnjw1wknd=X+@@@@@@@@@@@@@@@+X=dnn",
"76ejnjw<rlnf;X+@@@@@@@@@@@@@@@+X=dnn",
"76ejnjw29axp%X+@@@@@@@@@@@@@@@+X=dnn",
"76ejnjw480y,$o+@@@@@@@@@@@@@@@+X=dnn",
"76ejnhq1435>#o+@@@@@@@@@@@@@@@+X=dnn",
"76ejncuqwet,$o+@@@@@@@@@@@@@@@+X=dnn",
"76ejnbchjkzi%X+@@@@@@@@@@@@@@@+X=dnn",
"76ejnnnnnnnf;X+@@@@@@@@@@@@@@@+X=dnn",
"76ejnnnnnnnd-X+@@@@@@@@@@@@@@@+X=dnn",
"76ejnnnnnnnd*.O+++++++++++++++O.*dnn",
"76ejnnnnnnns& .XXXXXXXXXXXXXXX. &snn",
"76ejnnnnnnng:&*===============*&:gnn",
"76ejnnnnnnnvgsdddddddddddddddddsgvnn",
"76ejnnnnnnnnnnnnnnnnnnnnnnnnnnnnnnnn",
"76ejnnnnnnnnnnnnnnnnnnnnnnnnnnnnnnnn"
};
