/* XPM */
static char *hide_pressed[] = {
/* columns rows colors chars-per-pixel */
"36 30 55 1 ",
"  c #000000",
". c #0C0804",
"X c #0C0C0A",
"o c #2C1D0E",
"O c #311F0D",
"+ c #34210E",
"@ c #342310",
"# c #372410",
"$ c #372411",
"% c #382512",
"& c #001326",
"* c #2C2C26",
"= c #34352F",
"- c #373730",
"; c #383831",
": c #603F1E",
"> c #60513C",
", c #60523C",
"< c #9F6932",
"1 c #C5823C",
"2 c #C7833C",
"3 c #C7853F",
"4 c #C8853F",
"5 c #C88540",
"6 c #CB8741",
"7 c #D38C42",
"8 c #D38D43",
"9 c #F3A24D",
"0 c #FFAD51",
"q c #FFAD52",
"w c #FFAD53",
"e c #FFAE53",
"r c #FFAF53",
"t c #FFB053",
"y c #D39F61",
"u c #FFC071",
"i c #00458A",
"p c #0057B0",
"a c #0059B3",
"s c #9F9F8B",
"d c #C7C7B0",
"f c #C7C8B0",
"g c #C8C8B0",
"h c #C8C8B1",
"j c #CBCBB4",
"k c #D3D0B4",
"l c #F3E5BE",
"z c #FFEEC2",
"x c #FFFFDF",
"c c #FFFFE0",
"v c #FFFFE1",
"b c #FFFFE2",
"n c #FFFFE3",
"m c #FFFFE4",
"M c #FFFFE9",
/* pixels */
"pai&                                ",
"pai&                                ",
"pai& .o%$$$$$$$$$$$$$$$$$%o.        ",
"pai& o<6555555555555555556<o        ",
"pai& %6rqetrrrrrrrrrrrteqr6%        ",
"pai& $5q98355555555555389q5$        ",
"pai& $5e8:@#$$$$$$$$$#@:7w4#        ",
"pai& $5t3@             O102+        ",
"pai& $5r5# X*;--------=>yuy,=--;*X  ",
"pai& $5r5$ *sjhgggggggdklzlkdfhjs*  ",
"pai& $5r5$ ;jMmnnnnnnnnnbbbnnnmMj;  ",
"pai& $5r5$ -hmvcccccccccccccccvmh-  ",
"pai& $5r5$ -gncxxxxxxxxxxxxxxxcng-  ",
"pai& $5r5$ -gncxxxxxxxxxxxxxxxcng-  ",
"pai& $5r5$ -gncxxxxxxxxxxxxxxxcng-  ",
"pai& $5r5# -gncxxxxxxxxxxxxxxxcng-  ",
"pai& $5t3@ =dncxxxxxxxxxxxxxxxcng-  ",
"pai& $5e8:O>kncxxxxxxxxxxxxxxxcng-  ",
"pai& $5q971ylbcxxxxxxxxxxxxxxxcng-  ",
"pai& %6rqw0uzbcxxxxxxxxxxxxxxxcng-  ",
"pai& o<6542ylbcxxxxxxxxxxxxxxxcng-  ",
"pai& .o%$#+,kncxxxxxxxxxxxxxxxcng-  ",
"pai&       =dncxxxxxxxxxxxxxxxcng-  ",
"pai&       -fncxxxxxxxxxxxxxxxcng-  ",
"pai&       -hmvcccccccccccccccvmh-  ",
"pai&       ;jMmnnnnnnnnnnnnnnnmMj;  ",
"pai&       *sjhggggggggggggggghjs*  ",
"pai&       X*;-----------------;*X  ",
"pai&                                ",
"pai&                                "
};
