/* XPM */
static char *maximize_pressed[] = {
/* columns rows colors chars-per-pixel */
"36 30 63 1 ",
"  c #000000",
". c #0C0804",
"X c #0C0C0A",
"o c #2C1D0E",
"O c #34210F",
"+ c #342310",
"@ c #372410",
"# c #372411",
"$ c #382512",
"% c #372818",
"& c #001326",
"* c #2C2C26",
"= c #373329",
"- c #31322D",
"; c #34342D",
": c #37372F",
"> c #373730",
", c #373731",
"< c #383831",
"1 c #603F1E",
"2 c #604D36",
"3 c #606054",
"4 c #9F6932",
"5 c #C7853E",
"6 c #C7853F",
"7 c #C8833D",
"8 c #C8853F",
"9 c #C88540",
"0 c #CB8741",
"q c #D38D43",
"w c #D39049",
"e c #C89357",
"r c #F3A14C",
"t c #F3A24D",
"y c #FFA94F",
"u c #FFAA4F",
"i c #FFAC52",
"p c #FFAD52",
"a c #FFAE53",
"s c #FFAF53",
"d c #FFB053",
"f c #F3B065",
"g c #FFBF71",
"h c #00458A",
"j c #0057B0",
"k c #0059B3",
"l c #9F9F8B",
"z c #C8BB99",
"x c #D3C29D",
"c c #C7C7B0",
"v c #C5C7B2",
"b c #C8C8B1",
"n c #C8C9B4",
"m c #CBCBB4",
"M c #D3D3BB",
"N c #FFF3C9",
"B c #F3F3D7",
"V c #FFFFE5",
"C c #FFFFE6",
"Z c #FFFFE7",
"A c #FFFFE8",
"S c #FFFFE9",
"D c #FFFFEB",
/* pixels */
"jkh&                                ",
"jkh&                                ",
"jkh& .o$#################@%=,>><*X  ",
"jkh& o40999999999999999987eznbbml*  ",
"jkh& $0spasssssssssssssaiugNDAVAm<  ",
"jkh& #9ptq6999999999996qryfxvMBCb>  ",
"jkh& #9aq1+###########+1qpw2-3MZb>  ",
"jkh& #9s6+             +6d5O ;cSb>  ",
"jkh& #9s9#             #9s9@ :bSb>  ",
"jkh& #9s9#             #9s9# >bSb>  ",
"jkh& #9s9#             #9s9# >bSb>  ",
"jkh& #9s9#             #9s9# >bSb>  ",
"jkh& #9s9#             #9s9# >bSb>  ",
"jkh& #9s9#             #9s9# >bSb>  ",
"jkh& #9s9#             #9s9# >bSb>  ",
"jkh& #9s9#             #9s9# >bSb>  ",
"jkh& #9s6+             +6s9# >bSb>  ",
"jkh& #9aq1+###########+1qa9# >bSb>  ",
"jkh& #8irq6999999999996qtp9# >bSb>  ",
"jkh& @7uypdssssssssssssaps0$ >bSb>  ",
"jkh& %egfw59999999999999904o >bSb>  ",
"jkh& =zNx2O@#############$o. :bSb>  ",
"jkh& ,nDv-                   ;cSb>  ",
"jkh& >bAM3;:>>>>>>>>>>>>>>>:;3MZb>  ",
"jkh& >bVBMcbbbbbbbbbbbbbbbbbcMBCb>  ",
"jkh& <mACZSSSSSSSSSSSSSSSSSSSZCAm<  ",
"jkh& *lmbbbbbbbbbbbbbbbbbbbbbbbml*  ",
"jkh& X*<>>>>>>>>>>>>>>>>>>>>>>><*X  ",
"jkh&                                ",
"jkh&                                "
};
