/* XPM */
static char *maximize_inactive[] = {
/* columns rows colors chars-per-pixel */
"36 30 61 1 ",
"  c #000014",
". c #000016",
"X c #000017",
"o c #000018",
"O c #000019",
"+ c #00001A",
"@ c #0C0C28",
"# c #000C36",
"$ c #2C2C44",
"% c #34344B",
"& c #37364B",
"* c #37374E",
"= c #3A384D",
"- c #38384F",
"; c #2C3D62",
": c #374466",
"> c #606074",
", c #00408E",
"< c #0C4F9A",
"1 c #004FAC",
"2 c #0050AC",
"3 c #0051AC",
"4 c #0052AD",
"5 c #0053AD",
"6 c #0054AD",
"7 c #0056AF",
"8 c #0055B0",
"9 c #0056B0",
"0 c #0C5DB2",
"q c #0C5EB3",
"w c #376CA8",
"e c #2C6FB6",
"r c #2C72BC",
"t c #3478BE",
"y c #377ABF",
"u c #377AC0",
"i c #377CC2",
"p c #387AC0",
"a c #387AC1",
"s c #6096CD",
"d c #9F9FAB",
"f c #9FB2C9",
"g c #9FC0E1",
"h c #C7C7CE",
"j c #C8C8CE",
"k c #C8C8CF",
"l c #C8C8D0",
"z c #CBCBD2",
"x c #CECDD2",
"c c #C8CCD6",
"v c #D3D3D9",
"b c #C8D7E7",
"n c #C7DAED",
"m c #C8DBEE",
"M c #C8DBEF",
"N c #CBDCEF",
"B c #CBDEF0",
"V c #D3E2F1",
"C c #F3F3F5",
"Z c #F3F7FB",
"A c white",
/* pixels */
"76umAAAAAAAAAAAAAAAAAAAAAAAAAAAAAAAA",
"76umAAAAAAAAAAAAAAAAAAAAAAAAAAAAAAAA",
"76umAZVnmmmmmmmmmmmmmmmmmMbcjkkhvCAA",
"76umAVstyyyyyyyyyyyyyyyyuiw:&**%>vAA",
"76umAnt2432222222222222358,# X+X%hAA",
"76umAmy40rpyyyyyyyyyyyprq9<;=$@O*kAA",
"76umAmy3rgNmmmmmmmmmmmNgr4efxd$o*kAA",
"76umAmy2pNAAAAAAAAAAAAANp1aBAz-.*kAA",
"76umAmy2ymAAAAAAAAAAAAAmy2yMAl*.*kAA",
"76umAmy2ymAAAAAAAAAAAAAmy2ymAk*.*kAA",
"76umAmy2ymAAAAAAAAAAAAAmy2ymAk*.*kAA",
"76umAmy2ymAAAAAAAAAAAAAmy2ymAk*.*kAA",
"76umAmy2ymAAAAAAAAAAAAAmy2ymAk*.*kAA",
"76umAmy2ymAAAAAAAAAAAAAmy2ymAk*.*kAA",
"76umAmy2ymAAAAAAAAAAAAAmy2ymAk*.*kAA",
"76umAmy2ymAAAAAAAAAAAAAmy2ymAk*.*kAA",
"76umAmy2pNAAAAAAAAAAAAANp2ymAk*.*kAA",
"76umAmy3rgNmmmmmmmmmmmNgr3ymAk*.*kAA",
"76umAmu5qrpyyyyyyyyyyypr04ymAk*.*kAA",
"76umAMi8941222222222222342tnAk*.*kAA",
"76umAbw,<eayyyyyyyyyyyyyytsVAk*.*kAA",
"76umAc:#;fBMmmmmmmmmmmmmmnVZAl*.*kAA",
"76umAj& =xAAAAAAAAAAAAAAAAAAAz-.*kAA",
"76umAk*X$dzlkkkkkkkkkkkkkkklzd$o*kAA",
"76umAk*+@$-*****************-$@O*kAA",
"76umAh%XOo...................oOX%hAA",
"76umAv>%***********************%>vAA",
"76umACvhkkkkkkkkkkkkkkkkkkkkkkkhvCAA",
"76umAAAAAAAAAAAAAAAAAAAAAAAAAAAAAAAA",
"76umAAAAAAAAAAAAAAAAAAAAAAAAAAAAAAAA"
};
