/* XPM */
static char *title_5_active[] = {
/* columns rows colors chars-per-pixel */
"2 30 60 1 ",
"  c #FFFFFF",
". c #FFFFFF",
"X c #FFFFFF",
"o c #FFFFFF",
"O c #FFFFFF",
"+ c #FFFFFF",
"@ c #FFFFFF",
"# c #FFFFFF",
"$ c #FFFFFF",
"% c #FFFFFF",
"& c #C8DBEE",
"* c #C8DBEE",
"= c #377AC0",
"- c #377AC0",
"; c #0054AD",
": c #0054AD",
"> c #0057AF",
", c #0057AF",
"< c #0057AF",
"1 c #0057AF",
"2 c #0054AD",
"3 c #0054AD",
"4 c #377AC0",
"5 c #377AC0",
"6 c #C8DBEE",
"7 c #C8DBEE",
"8 c #FFFFFF",
"9 c #FFFFFF",
"0 c #FFFFFF",
"q c #FFFFFF",
"w c #FFFFFF",
"e c #FFFFFF",
"r c #FFFFFF",
"t c #FFFFFF",
"y c #C8DBEE",
"u c #C8DBEE",
"i c #377AC0",
"p c #377AC0",
"a c #0054AD",
"s c #0054AD",
"d c #0057AF",
"f c #0057AF",
"g c #0057AF",
"h c #0057AF",
"j c #0054AD",
"k c #0054AD",
"l c #377AC0",
"z c #377AC0",
"x c #C8DBEE",
"c c #C8DBEE",
"v c #FFFFFF",
"b c #FFFFFF",
"n c #FFFFFF",
"m c #FFFFFF",
"M c #FFFFFF",
"N c #FFFFFF",
"B c #FFFFFF",
"V c #FFFFFF",
"C c #FFFFFF",
"Z c #FFFFFF",
/* pixels */
" .",
"Xo",
"O+",
"@#",
"$%",
"&*",
"=-",
";:",
">,",
"<1",
"23",
"45",
"67",
"89",
"0q",
"we",
"rt",
"yu",
"ip",
"as",
"df",
"gh",
"jk",
"lz",
"xc",
"vb",
"nm",
"MN",
"BV",
"CZ"
};
