/* XPM */
static char *title_1_inactive[] = {
/* columns rows colors chars-per-pixel */
"3 30 90 1 ",
"  c #0057AF",
". c #0057AF",
"X c #0057AF",
"o c #0057AF",
"O c #0057AF",
"+ c #0057AF",
"@ c #0057AF",
"# c #0057AF",
"$ c #0057AF",
"% c #0057AF",
"& c #0057AF",
"* c #0057AF",
"= c #0057AF",
"- c #0057AF",
"; c #0057AF",
": c #0057AF",
"> c #0057AF",
", c #0057AF",
"< c #0057AF",
"1 c #0057AF",
"2 c #0057AF",
"3 c #0057AF",
"4 c #0057AF",
"5 c #0057AF",
"6 c #0057AF",
"7 c #0057AF",
"8 c #0057AF",
"9 c #0057AF",
"0 c #0057AF",
"q c #0057AF",
"w c #0057AF",
"e c #0057AF",
"r c #0057AF",
"t c #0057AF",
"y c #0057AF",
"u c #0057AF",
"i c #0057AF",
"p c #0057AF",
"a c #0057AF",
"s c #0057AF",
"d c #0057AF",
"f c #0057AF",
"g c #0057AF",
"h c #0057AF",
"j c #0057AF",
"k c #0057AF",
"l c #0057AF",
"z c #0057AF",
"x c #0057AF",
"c c #0057AF",
"v c #0057AF",
"b c #0057AF",
"n c #0057AF",
"m c #0057AF",
"M c #0057AF",
"N c #0057AF",
"B c #0057AF",
"V c #0057AF",
"C c #0057AF",
"Z c #0057AF",
"A c #0057AF",
"S c #0057AF",
"D c #0057AF",
"F c #0057AF",
"G c #0057AF",
"H c #0057AF",
"J c #0057AF",
"K c #0057AF",
"L c #0057AF",
"P c #0057AF",
"I c #0057AF",
"U c #0057AF",
"Y c #0057AF",
"T c #0057AF",
"R c #0057AF",
"E c #0057AF",
"W c #0057AF",
"Q c #0057AF",
"! c #0057AF",
"~ c #0057AF",
"^ c #0057AF",
"/ c #0057AF",
"( c #0057AF",
") c #0057AF",
"_ c #0057AF",
"` c #0057AF",
"' c #0057AF",
"] c #0057AF",
"[ c #0057AF",
"{ c #0057AF",
/* pixels */
" .X",
"oO+",
"@#$",
"%&*",
"=-;",
":>,",
"<12",
"345",
"678",
"90q",
"wer",
"tyu",
"ipa",
"sdf",
"ghj",
"klz",
"xcv",
"bnm",
"MNB",
"VCZ",
"ASD",
"FGH",
"JKL",
"PIU",
"YTR",
"EWQ",
"!~^",
"/()",
"_`'",
"][{"
};
