/* XPM */
static char *title_3_active[] = {
/* columns rows colors chars-per-pixel */
"3 30 28 1 ",
"  c #FFFFFF",
". c white",
"X c #FFFFFF",
"o c white",
"O c #FFFFFF",
"+ c #FFFFFF",
"@ c #FFFFFF",
"# c #FFFFFF",
"$ c white",
"% c #FFFFFF",
"& c #FFFFFF",
"* c #FFFFFF",
"= c white",
"- c #FFFFFF",
"; c #FFFFFF",
": c #FFFFFF",
"> c white",
", c #FFFFFF",
"< c #FFFFFF",
"1 c #FFFFFF",
"2 c white",
"3 c #FFFFFF",
"4 c #FFFFFF",
"5 c #FFFFFF",
"6 c white",
"7 c #FFFFFF",
"8 c white",
"9 c #FFFFFF",
/* pixels */
"  .",
"  .",
"  .",
"  .",
" XX",
"  o",
" OO",
" OO",
"OO+",
" @@",
" @@",
"@@#",
"  $",
" %%",
"&&*",
"  =",
" --",
";;:",
"  >",
" ,,",
"<<1",
"  2",
" 33",
"445",
"  6",
" 77",
"  8",
"  8",
"  8",
" 99"
};
