/* XPM */
static char *title_5_inactive[] = {
/* columns rows colors chars-per-pixel */
"6 30 180 2 ",
"   c #FFFFFF",
".  c #FFFFFF",
"X  c #FFFFFF",
"o  c #FFFFFF",
"O  c #FFFFFF",
"+  c #FFFFFF",
"@  c #FFFFFF",
"#  c #FFFFFF",
"$  c #FFFFFF",
"%  c #FFFFFF",
"&  c #FFFFFF",
"*  c #FFFFFF",
"=  c #FFFFFF",
"-  c #FFFFFF",
";  c #FFFFFF",
":  c #FFFFFF",
">  c #FFFFFF",
",  c #FFFFFF",
"<  c #FFFFFF",
"1  c #FFFFFF",
"2  c #FFFFFF",
"3  c #FFFFFF",
"4  c #FFFFFF",
"5  c #FFFFFF",
"6  c #FFFFFF",
"7  c #FFFFFF",
"8  c #FFFFFF",
"9  c #FFFFFF",
"0  c #FFFFFF",
"q  c #FFFFFF",
"w  c #FCFDFE",
"e  c #E4EDF7",
"r  c #CADDEE",
"t  c #C7DAED",
"y  c #C8DBEE",
"u  c #C8DBEE",
"i  c #F4F8FC",
"p  c #9CBEE0",
"a  c #3F7FC2",
"s  c #3578BE",
"d  c #377ABF",
"f  c #377AC0",
"g  c #F2F7FB",
"h  c #82ADD8",
"j  c #0D59B0",
"k  c #004EAB",
"l  c #0052AC",
"z  c #0054AD",
"x  c #C0D6EB",
"c  c #659ACF",
"v  c #1563B5",
"b  c #276FBA",
"n  c #1C68B7",
"m  c #0358AF",
"M  c #3478BF",
"N  c #1965B6",
"B  c #2F76BE",
"V  c #96BADE",
"C  c #669BCF",
"Z  c #0B5BB1",
"A  c #004FAB",
"S  c #004EAB",
"D  c #3A7BC0",
"F  c #C3D8EC",
"G  c #82ADD8",
"H  c #0E5AB1",
"J  c #3779BF",
"K  c #3477BE",
"L  c #6498CE",
"P  c #CEDFF0",
"I  c #9DBEE0",
"U  c #407FC2",
"Y  c #C8DBEE",
"T  c #C7DAED",
"R  c #D4E3F2",
"E  c #F2F6FB",
"W  c #E4EDF7",
"Q  c #CADCEE",
"!  c #FFFFFF",
"~  c #FFFFFF",
"^  c #FFFFFF",
"/  c #FFFFFF",
"(  c #FFFFFF",
")  c #FFFFFF",
"_  c #FFFFFF",
"`  c #FFFFFF",
"'  c #FFFFFF",
"]  c #FFFFFF",
"[  c #FFFFFF",
"{  c #FFFFFF",
"}  c #FFFFFF",
"|  c #FFFFFF",
" . c #FFFFFF",
".. c #FFFFFF",
"X. c #FFFFFF",
"o. c #FFFFFF",
"O. c #FFFFFF",
"+. c #FFFFFF",
"@. c #FFFFFF",
"#. c #FFFFFF",
"$. c #FFFFFF",
"%. c #FFFFFF",
"&. c #FCFDFE",
"*. c #E4EDF7",
"=. c #CADDEE",
"-. c #C7DAED",
";. c #C8DBEE",
":. c #C8DBEE",
">. c #F4F8FC",
",. c #9CBEE0",
"<. c #3F7FC2",
"1. c #3578BE",
"2. c #377ABF",
"3. c #377AC0",
"4. c #F2F7FB",
"5. c #82ADD8",
"6. c #0D59B0",
"7. c #004EAB",
"8. c #0052AC",
"9. c #0054AD",
"0. c #C0D6EB",
"q. c #659ACF",
"w. c #1563B5",
"e. c #276FBA",
"r. c #1C68B7",
"t. c #0358AF",
"y. c #3478BF",
"u. c #1965B6",
"i. c #2F76BE",
"p. c #96BADE",
"a. c #669BCF",
"s. c #0B5BB1",
"d. c #004FAB",
"f. c #004EAB",
"g. c #3A7BC0",
"h. c #C3D8EC",
"j. c #82ADD8",
"k. c #0E5AB1",
"l. c #3779BF",
"z. c #3477BE",
"x. c #6498CE",
"c. c #CEDFF0",
"v. c #9DBEE0",
"b. c #407FC2",
"n. c #C8DBEE",
"m. c #C7DAED",
"M. c #D4E3F2",
"N. c #F2F6FB",
"B. c #E4EDF7",
"V. c #CADCEE",
"C. c #FFFFFF",
"Z. c #FFFFFF",
"A. c #FFFFFF",
"S. c #FFFFFF",
"D. c #FFFFFF",
"F. c #FFFFFF",
"G. c #FFFFFF",
"H. c #FFFFFF",
"J. c #FFFFFF",
"K. c #FFFFFF",
"L. c #FFFFFF",
"P. c #FFFFFF",
"I. c #FFFFFF",
"U. c #FFFFFF",
"Y. c #FFFFFF",
"T. c #FFFFFF",
"R. c #FFFFFF",
"E. c #FFFFFF",
"W. c #FFFFFF",
"Q. c #FFFFFF",
"!. c #FFFFFF",
"~. c #FFFFFF",
"^. c #FFFFFF",
"/. c #FFFFFF",
"(. c #FFFFFF",
"). c #FFFFFF",
"_. c #FFFFFF",
"`. c #FFFFFF",
"'. c #FFFFFF",
"]. c white",
/* pixels */
"  . X o O + ",
"@ # $ % & * ",
"= - ; : > , ",
"< 1 2 3 4 5 ",
"6 7 8 9 0 q ",
"w e r t y u ",
"i p a s d f ",
"g h j k l z ",
"x c v b n m ",
"M N B V C Z ",
"A S D F G H ",
"J K L P I U ",
"Y T R E W Q ",
"! ~ ^ / ( ) ",
"_ ` ' ] [ { ",
"} |  ...X.o.",
"O.+.@.#.$.%.",
"&.*.=.-.;.:.",
">.,.<.1.2.3.",
"4.5.6.7.8.9.",
"0.q.w.e.r.t.",
"y.u.i.p.a.s.",
"d.f.g.h.j.k.",
"l.z.x.c.v.b.",
"n.m.M.N.B.V.",
"C.Z.A.S.D.F.",
"G.H.J.K.L.P.",
"I.U.Y.T.R.E.",
"W.Q.!.~.^./.",
"(.)._.`.'.]."
};
