/* XPM */
static char *top_left_inactive[] = {
/* columns rows colors chars-per-pixel */
"9 30 5 1 ",
"  c #0054AD",
". c #0056AF",
"X c #377AC0",
"o c #C8DBEE",
"O c #FFFFFF",
/* pixels */
"OOOOOoX .",
"OOOOOoX .",
"OOOOOoX .",
"OOOOOoX .",
"OOOOOoX .",
"OOOOOoX .",
"OOOOOoX .",
"OOOOOoX .",
"OOOOOoX .",
"OOOOOoX .",
"OOOOOoX .",
"OOOOOoX .",
"OOOOOoX .",
"OOOOOoX .",
"OOOOOoX .",
"OOOOOoX .",
"OOOOOoX .",
"OOOOOoX .",
"OOOOOoX .",
"OOOOOoX .",
"OOOOOoX .",
"OOOOOoX .",
"OOOOOoX .",
"OOOOOoX .",
"OOOOOoX .",
"OOOOOoX .",
"OOOOOoX .",
"OOOOOoX .",
"OOOOOoX .",
"OOOOOoX ."
};
