/* XPM */
static char *top_right_inactive[] = {
/* columns rows colors chars-per-pixel */
"12 30 5 1 ",
"  c #0054AD",
". c #0057AF",
"X c #377AC0",
"o c #C8DBEE",
"O c white",
/* pixels */
".... XoOOOOO",
".... XoOOOOO",
".... XoOOOOO",
".... XoOOOOO",
".... XoOOOOO",
".... XoOOOOO",
".... XoOOOOO",
".... XoOOOOO",
".... XoOOOOO",
".... XoOOOOO",
".... XoOOOOO",
".... XoOOOOO",
".... XoOOOOO",
".... XoOOOOO",
".... XoOOOOO",
".... XoOOOOO",
".... XoOOOOO",
".... XoOOOOO",
".... XoOOOOO",
".... XoOOOOO",
".... XoOOOOO",
".... XoOOOOO",
".... XoOOOOO",
".... XoOOOOO",
".... XoOOOOO",
".... XoOOOOO",
".... XoOOOOO",
".... XoOOOOO",
".... XoOOOOO",
".... XoOOOOO"
};
